HIERARCHY
ROOT Hips
{
	OFFSET -3.958830 18.904000 13.208200
	CHANNELS 6 Xposition Yposition Zposition Zrotation Yrotation Xrotation 
	JOINT LHipJoint
	{
		OFFSET 0.000000 0.000000 0.000000
		CHANNELS 3 Zrotation Yrotation Xrotation
		JOINT LeftUpLeg
		{
			OFFSET 1.800000 -1.400000 0.085000
			CHANNELS 3 Zrotation Yrotation Xrotation
			JOINT LeftLeg
			{
				OFFSET 2.215000 -6.000000 0.000000
				CHANNELS 3 Zrotation Yrotation Xrotation
				JOINT LeftFoot
				{
					OFFSET 2.500000 -6.900000 0.000000
					CHANNELS 3 Zrotation Yrotation Xrotation
					JOINT LeftToeBase
					{
						OFFSET 0.200000 -0.500000 1.950000
						CHANNELS 3 Zrotation Yrotation Xrotation
						End Site
						{
							OFFSET 0.000000 0.000000 0.000000
						}
					}
				}
			}
		}
	}
	JOINT RHipJoint
	{
		OFFSET 0.000000 0.000000 0.000000
		CHANNELS 3 Zrotation Yrotation Xrotation
		JOINT RightUpLeg
		{
			OFFSET -1.800000 -1.400000 0.085000
			CHANNELS 3 Zrotation Yrotation Xrotation
			JOINT RightLeg
			{
				OFFSET -2.215000 -6.000000 0.000000
				CHANNELS 3 Zrotation Yrotation Xrotation
				JOINT RightFoot
				{
					OFFSET -2.500000 -6.900000 0.000000
					CHANNELS 3 Zrotation Yrotation Xrotation
					JOINT RightToeBase
					{
						OFFSET -0.200000 -0.500000 1.950000
						CHANNELS 3 Zrotation Yrotation Xrotation
						End Site
						{
							OFFSET 0.000000 0.000000 0.000000
						}
					}
				}
			}
		}
	}
	JOINT LowerBack
	{
		OFFSET 0.000000 0.000000 0.000000
		CHANNELS 3 Zrotation Yrotation Xrotation
		JOINT Spine
		{
			OFFSET -0.087000 1.940000 -0.288900
			CHANNELS 3 Zrotation Yrotation Xrotation
			JOINT Spine1
			{
				OFFSET 0.000000 1.950000 0.060000
				CHANNELS 3 Zrotation Yrotation Xrotation
				JOINT Neck
				{
					OFFSET 0.000000 0.000000 0.000000
					CHANNELS 3 Zrotation Yrotation Xrotation
					JOINT Neck1
					{
						OFFSET 0.000000 1.600000 0.340000
						CHANNELS 3 Zrotation Yrotation Xrotation
						JOINT Head
						{
							OFFSET 0.000000 1.667000 -0.240000
							CHANNELS 3 Zrotation Yrotation Xrotation
							End Site
							{
								OFFSET 0.000000 0.000000 0.000000
							}
						}
					}
				}
				JOINT LeftShoulder
				{
					OFFSET 0.000000 0.000000 0.000000
					CHANNELS 3 Zrotation Yrotation Xrotation
					JOINT LeftArm
					{
						OFFSET 2.700000 1.550000 -0.730000
						CHANNELS 3 Zrotation Yrotation Xrotation
						JOINT LeftForeArm
						{
							OFFSET 5.450000 0.000000 0.000000
							CHANNELS 3 Zrotation Yrotation Xrotation
							JOINT LeftHand
							{
								OFFSET 3.450000 0.000000 0.000000
								CHANNELS 3 Zrotation Yrotation Xrotation
								JOINT LeftHandIndex1
								{
									OFFSET 0.750000 0.000000 0.000000
									CHANNELS 3 Zrotation Yrotation Xrotation
									End Site
									{
										OFFSET 0.000000 0.000000 0.000000
									}
								}
							}
						}
					}
				}
				JOINT RightShoulder
				{
					OFFSET 0.000000 0.000000 0.000000
					CHANNELS 3 Zrotation Yrotation Xrotation
					JOINT RightArm
					{
						OFFSET -2.700000 1.550000 -0.730000
						CHANNELS 3 Zrotation Yrotation Xrotation
						JOINT RightForeArm
						{
							OFFSET -5.450000 0.000000 0.000000
							CHANNELS 3 Zrotation Yrotation Xrotation
							JOINT RightHand
							{
								OFFSET -3.450000 0.000000 0.000000
								CHANNELS 3 Zrotation Yrotation Xrotation
								JOINT RightHandIndex1
								{
									OFFSET -0.750000 0.000000 0.000000
									CHANNELS 3 Zrotation Yrotation Xrotation
									End Site
									{
										OFFSET 0.000000 0.000000 0.000000
									}
								}
							}
						}
					}
				}
			}
		}
	}
}
MOTION
Frames: 14
Frame Time: 0.016667
1.804390 15.964100 -6.789780 -3.288616 -9.598917 3.930112 -15.567217 11.499893 4.949247 31.855558 -1.154418 -34.162665 -12.509535 15.435094 35.316852 0.439643 8.821864 1.139559 0.362700 0.289950 0.403070 18.296081 -8.796935 3.385312 -28.994465 3.226102 -33.717804 17.134495 -15.448635 38.652505 -0.721782 -7.380456 1.510700 0.161100 -0.220020 0.070490 -3.133212 -2.438117 -9.393968 8.154081 0.043348 25.997096 0.008614 2.875068 -0.980528 1.532269 -2.500282 -5.482226 -8.688192 0.854790 42.681901 -3.898950 0.948880 -8.735610 -30.624213 -1.982936 -1.522154 -39.015644 -3.144714 -6.886673 -26.984769 -31.390968 5.438785 -3.535144 3.200187 0.230010 -0.117000 0.184890 -0.002850 27.347402 5.580049 3.271695 41.417147 -2.699228 -11.118619 18.904673 31.663887 2.547711 2.420961 -1.470398 0.044210 0.007150 -0.159540 -0.140330 
1.830760 15.851180 -6.846890 -3.321325 -9.836936 1.968215 -15.645647 11.208963 5.240081 33.946337 -0.840250 -35.270397 -13.594405 17.493394 39.145829 0.600782 9.700460 0.821178 0.424580 0.359020 0.474660 18.318397 -8.466592 3.435681 -30.826914 3.137023 -34.879128 16.654591 -17.025579 42.883153 -0.929907 -8.062346 1.271866 0.176330 -0.321170 0.066030 -3.094819 -2.584619 -9.638154 8.459522 -0.276115 30.386974 -0.691372 3.101354 0.439279 1.897366 -2.693794 -7.030390 -9.433444 0.943812 44.089099 -3.842650 0.926000 -12.046320 -27.608894 -4.115849 -0.503119 -34.480837 -2.819040 -6.953536 -38.986252 -37.697658 10.771312 -3.432620 3.297315 0.314450 -0.202520 0.274580 -0.020440 23.559799 7.986163 4.929390 38.974541 -3.915064 -11.864738 32.815397 38.704793 7.148133 2.418247 -1.577706 0.069640 0.006990 -0.188870 -0.165850 
1.850530 15.705470 -6.911310 -3.289608 -9.919956 -0.189902 -15.741145 10.917609 5.517341 36.183270 -0.482853 -36.160650 -14.789973 19.613804 42.651547 0.761821 10.527754 0.528770 0.481990 0.426160 0.543260 18.327320 -8.115369 3.476614 -32.698811 3.001471 -35.786542 16.243961 -18.693239 47.076331 -1.154055 -8.769445 1.034580 0.193010 -0.417130 0.064640 -3.014612 -2.769229 -9.852232 8.191719 -0.589497 35.199793 -1.209818 3.203252 1.996923 2.312992 -2.701007 -8.584175 -9.687901 0.846935 44.790486 -3.950730 1.041390 -15.750570 -23.937063 -6.076559 0.605345 -29.165540 -1.855845 -7.040595 -54.496137 -43.886091 19.142879 -3.350398 3.386717 0.399380 -0.280820 0.361610 -0.041680 19.089749 10.155079 6.491151 35.553906 -5.191886 -11.999655 52.081871 44.947178 15.113200 2.453772 -1.691874 0.090950 0.009320 -0.211510 -0.193880 
1.853440 15.527800 -6.964190 -3.135892 -9.583795 -2.332045 -15.848203 10.638840 5.813800 38.505087 -0.146685 -37.191944 -15.994213 21.772433 45.987371 0.933423 11.299041 0.272520 0.525510 0.474990 0.606930 18.323335 -7.768885 3.475563 -34.481682 2.763041 -36.290918 15.557798 -20.351324 51.346253 -1.387828 -9.462514 0.814748 0.194500 -0.501910 0.065880 -2.894474 -3.016041 -10.050459 7.465583 -0.807378 39.791858 -1.270891 3.175566 3.610356 2.689288 -2.758033 -10.352848 -10.123604 0.751251 45.436564 -4.138440 1.143500 -19.417190 -19.466487 -7.825664 1.953410 -24.195806 -0.269940 -7.142373 -73.136061 -48.111426 30.095473 -3.278034 3.444252 0.487390 -0.356560 0.449180 -0.062820 13.979247 12.203847 8.145221 32.209983 -6.955232 -12.000869 74.170105 48.793849 25.687199 2.520011 -1.754338 0.109100 0.019050 -0.227690 -0.218370 
1.850910 15.330520 -7.007940 -2.877131 -8.942177 -4.474850 -15.926964 10.354121 6.082067 40.604225 -0.021746 -38.063258 -17.414265 23.958392 49.049386 1.108210 11.994038 0.053261 0.558710 0.515830 0.652630 18.333708 -7.470678 3.485697 -36.437391 2.350136 -36.333988 15.230061 -22.235511 55.339766 -1.631757 -10.161531 0.604994 0.192490 -0.573240 0.059450 -2.824629 -3.188988 -10.226848 6.840134 -1.102012 43.977178 -1.440663 2.982940 5.116001 3.009617 -2.866174 -12.165383 -10.828814 0.935285 46.811867 -3.622600 1.188480 -22.610120 -14.553847 -9.111900 3.292036 -19.529087 1.471892 -7.127291 -92.466982 -49.115134 41.290630 -3.190506 3.481629 0.575690 -0.431570 0.529850 -0.079490 8.569507 13.745044 9.793669 29.603462 -9.472534 -12.110817 95.299739 48.828207 36.030848 2.556943 -1.783603 0.120180 0.036360 -0.238350 -0.236660 
1.850860 15.130130 -7.044130 -2.540617 -8.993526 -6.077800 -16.022095 10.060301 6.364881 42.962010 0.335751 -38.615729 -19.544288 26.570742 51.488105 1.296797 12.680662 -0.148209 0.575190 0.536070 0.685090 18.331226 -7.133624 3.514156 -38.231986 2.121975 -36.664175 15.080736 -23.810837 58.526122 -1.827564 -10.722952 0.442122 0.186500 -0.626540 0.056970 -2.723788 -3.370762 -10.394356 5.874906 -0.995705 47.381432 -1.270409 2.978350 6.448835 3.311238 -3.049519 -13.682668 -11.451972 1.372425 47.475838 -3.445040 1.659000 -25.167790 -10.016852 -9.600029 4.455372 -15.808268 3.548402 -6.978307 -109.478913 -46.977028 50.052514 -3.094502 3.530732 0.646550 -0.485250 0.588670 -0.099630 3.575645 14.653417 11.200252 26.849736 -12.129788 -11.771247 112.060204 46.424412 44.127809 2.524617 -1.826790 0.123500 0.045370 -0.238850 -0.255950 
1.844470 14.935740 -7.075740 -2.311244 -9.444013 -7.035983 -16.086003 9.732834 6.610335 45.318315 0.955986 -38.795372 -21.964209 29.211138 53.011141 1.466219 13.238569 -0.296901 0.582970 0.545660 0.703470 18.352910 -6.835207 3.592194 -39.751048 2.078694 -37.574013 14.885971 -25.119116 61.314332 -1.987822 -11.202456 0.310058 0.181990 -0.653830 0.058730 -2.708689 -3.361995 -10.543839 5.402577 -0.918995 49.404583 -1.563064 2.996221 7.696908 3.555245 -3.181324 -14.880053 -11.827901 1.965727 48.039171 -3.228720 2.206860 -26.841380 -5.725087 -9.592519 5.426762 -13.176858 5.187164 -6.546234 -120.370424 -43.593051 54.115460 -3.008288 3.575311 0.696860 -0.516700 0.627120 -0.112930 -1.098247 14.971484 12.253239 24.894690 -13.457412 -10.811632 123.132120 42.857603 48.106204 2.458274 -1.884235 0.121780 0.055570 -0.233820 -0.268400 
1.836950 14.800700 -7.097750 -2.003529 -9.674181 -8.112337 -16.113794 9.563570 6.728536 46.610301 1.305218 -38.727576 -22.912788 30.872927 54.545583 1.581752 13.572430 -0.389839 0.596290 0.563800 0.725040 18.366874 -6.699571 3.626740 -40.769875 2.097135 -37.924948 14.320929 -25.865189 63.564817 -2.104227 -11.524625 0.219670 0.178970 -0.685660 0.059680 -2.712609 -3.316801 -10.620252 5.199625 -0.835410 50.719037 -1.939531 3.109611 8.634687 3.796066 -3.022993 -15.908296 -11.985440 2.529549 50.210703 -3.026830 2.669540 -27.514350 -2.633265 -10.215775 6.265849 -11.156521 5.747261 -6.142034 -124.924696 -40.785268 53.800522 -2.931267 3.596692 0.731620 -0.545970 0.664230 -0.123550 -4.571439 15.670843 13.152730 23.543557 -14.106673 -10.181304 126.660959 40.701108 47.737305 2.414900 -1.904942 0.130930 0.055460 -0.237500 -0.275700 
1.827080 14.712950 -7.107830 -1.947358 -9.843638 -9.081209 -16.135207 9.480181 6.795683 47.565392 1.680382 -38.552099 -23.084275 31.906094 55.819322 1.647955 13.775884 -0.452694 0.615350 0.590940 0.742730 18.370534 -6.604619 3.643814 -41.276565 2.305067 -38.063272 14.019625 -26.441347 65.215045 -2.197924 -11.766300 0.153806 0.184870 -0.711280 0.059400 -2.704673 -3.321772 -10.665833 4.929346 -1.008547 51.502559 -2.180342 2.855808 9.198352 4.058566 -2.799899 -16.663114 -11.945013 3.576909 53.106495 -2.858130 3.272940 -27.813910 -0.793816 -11.274335 7.363539 -11.528556 6.905980 -6.180658 -124.874940 -39.661626 51.494683 -2.887391 3.583357 0.758200 -0.568900 0.695150 -0.128080 -6.865399 16.634368 13.258165 21.689859 -12.427257 -10.005867 125.523477 40.669229 46.439091 2.397193 -1.880565 0.140230 0.057860 -0.242870 -0.279630 
1.824140 14.686530 -7.106610 -1.945123 -10.377951 -10.012414 -16.144871 9.564917 6.763628 47.785730 1.911577 -37.852935 -22.356315 32.135479 56.831767 1.684237 13.846881 -0.479591 0.632820 0.611000 0.746410 18.355618 -6.580780 3.627041 -41.136181 2.747255 -37.917948 13.657192 -26.542354 66.297620 -2.242944 -11.887324 0.123345 0.187820 -0.726810 0.053630 -2.684458 -3.447293 -10.654069 4.844043 -1.406366 51.910215 -2.248409 2.467506 8.988001 4.354277 -3.362647 -17.382743 -14.196975 5.532703 56.760271 -2.702510 3.119940 -26.521600 -1.062563 -13.154720 8.180415 -13.066250 7.098086 -6.772918 -118.707514 -39.844079 45.961544 -2.871251 3.534563 0.760610 -0.586940 0.706940 -0.123580 -6.973306 18.946113 13.261468 19.414997 -10.464490 -10.375986 120.025705 42.835821 44.811862 2.423898 -1.812378 0.156500 0.054880 -0.250930 -0.269710 
1.813030 14.705880 -7.088150 -2.031261 -10.500198 -10.620801 -16.156851 9.741811 6.727234 47.697564 1.920990 -37.197806 -21.845411 31.837848 56.951271 1.689066 13.795416 -0.473529 0.643360 0.624740 0.739080 18.320511 -6.607367 3.545432 -40.544375 3.188317 -37.102324 13.498456 -26.410785 66.574037 -2.249144 -11.897540 0.123601 0.187080 -0.729530 0.049270 -2.617434 -3.692750 -10.619169 4.818595 -1.805963 52.058139 -1.850936 2.133794 7.636688 4.522197 -3.981546 -17.835406 -16.677881 7.655401 59.495519 -2.394060 3.043740 -24.745510 -3.635859 -15.454177 8.457878 -14.554028 6.351372 -7.508684 -108.154272 -39.869069 38.237718 -2.880197 3.468570 0.748700 -0.593840 0.706260 -0.116000 -4.496368 21.692325 13.147719 17.014182 -8.735509 -10.724650 109.836555 44.872806 40.094850 2.473879 -1.723163 0.173860 0.046580 -0.257270 -0.254240 
1.801220 14.770980 -7.060590 -1.866794 -10.082126 -10.856115 -16.136245 9.975970 6.647570 46.789197 1.486934 -36.680955 -21.432167 30.906997 56.209044 1.661959 13.616931 -0.427546 0.641200 0.619980 0.716670 18.290168 -6.741508 3.442759 -39.871125 3.387289 -35.828295 13.587417 -25.935586 65.662285 -2.190033 -11.736153 0.168725 0.181090 -0.711660 0.043330 -2.582273 -3.888409 -10.555373 4.759834 -2.314889 51.608242 -1.499753 1.655427 5.359513 4.465907 -4.535153 -18.047378 -18.996410 9.550797 61.535805 -1.511750 2.837520 -21.985520 -8.644759 -17.968619 8.285603 -16.178965 5.018678 -8.062220 -93.600434 -39.163566 29.517523 -2.906861 3.396421 0.719720 -0.586190 0.685030 -0.103100 0.860668 24.503091 12.950219 15.211390 -6.858633 -10.630325 92.696243 45.619921 31.608266 2.516957 -1.622658 0.185260 0.033060 -0.262690 -0.233590 
1.785880 14.887240 -7.027690 -1.755677 -9.760461 -11.056838 -16.094952 10.298295 6.533727 45.664661 1.024338 -35.511729 -21.411826 29.501982 54.191941 1.593635 13.291654 -0.336813 0.614430 0.580970 0.684230 18.250520 -7.000321 3.275453 -38.474024 3.757191 -34.131633 13.416569 -24.696705 63.876878 -2.056262 -11.374383 0.267898 0.162370 -0.678510 0.039280 -2.557079 -4.019352 -10.450377 4.894080 -2.715460 50.965124 -1.304141 1.386380 2.932986 4.388575 -4.797711 -18.093619 -20.342151 10.677949 63.003355 -1.312990 2.643880 -18.433930 -15.248439 -20.276816 7.862476 -17.841538 3.557631 -8.112585 -75.760071 -36.710856 20.343471 -2.932666 3.331172 0.674890 -0.557260 0.642350 -0.095560 7.800283 26.900098 12.820404 14.614073 -5.271776 -10.192124 72.321661 44.146534 22.437552 2.507258 -1.534770 0.186000 0.013500 -0.257250 -0.218110 
1.765250 15.031510 -6.989670 -1.603126 -9.503156 -10.897818 -16.038971 10.672892 6.376461 44.151142 0.566996 -34.067809 -21.259603 27.707608 51.485763 1.493961 12.854132 -0.207794 0.568790 0.521910 0.632310 18.202836 -7.341097 3.099187 -36.687621 4.104932 -32.452172 12.891465 -22.971286 61.646691 -1.871109 -10.893737 0.407912 0.141600 -0.623300 0.037930 -2.533488 -4.080182 -10.325139 4.979715 -2.702871 49.547194 -1.071303 1.442090 0.885376 4.125665 -4.664903 -17.815469 -20.057666 10.790616 63.666347 -1.105430 2.661380 -14.312810 -22.505815 -21.743381 7.318977 -19.751460 2.167301 -7.559518 -56.587501 -34.087189 13.199909 -2.948158 3.302801 0.609380 -0.501910 0.575800 -0.084760 15.660633 28.099431 12.602794 15.607515 -3.942441 -9.529140 50.878457 40.980813 14.190584 2.450980 -1.476640 0.176430 -0.012420 -0.244430 -0.204030 
